<?xml version="1.0"?>
<svg xmlns="http://www.w3.org/2000/svg" xmlns:xlink="http://www.w3.org/1999/xlink" version="1.1" viewBox="0 0 224 224" width="48px" height="48px"><g fill="none" fill-rule="nonzero" stroke="none" stroke-width="1" stroke-linecap="butt" stroke-linejoin="miter" stroke-miterlimit="10" stroke-dasharray="" stroke-dashoffset="0" font-family="none" font-weight="none" font-size="none" text-anchor="none" style="mix-blend-mode: normal"><path d="M0,224v-224h224v224z" fill="#f1c40f"/><g><g id="surface1"><path d="M196,172.66667c0,12.88802 -10.44531,23.33333 -23.33333,23.33333h-121.33333c-12.88802,0 -23.33333,-10.44531 -23.33333,-23.33333v-121.33333c0,-12.88802 10.44531,-23.33333 23.33333,-23.33333h121.33333c12.88802,0 23.33333,10.44531 23.33333,23.33333z" fill="#3f51b5"/><path d="M160.38021,116.66667h-15.71354v60.66667h-23.33333v-60.66667h-14v-18.66667h14v-11.24739c0.01823,-16.36979 6.81771,-26.08594 26.10417,-26.08594h15.89583v18.66667h-10.66406c-7.51042,0 -8.00261,2.80729 -8.00261,8.03906v10.62761h18.66667z" fill="#ffffff"/></g></g></g></svg>
