<?xml version="1.0"?>
<svg xmlns="http://www.w3.org/2000/svg" xmlns:xlink="http://www.w3.org/1999/xlink" version="1.1" viewBox="0 0 224 224" width="48px" height="48px"><g fill="none" fill-rule="nonzero" stroke="none" stroke-width="1" stroke-linecap="butt" stroke-linejoin="miter" stroke-miterlimit="10" stroke-dasharray="" stroke-dashoffset="0" font-family="none" font-weight="none" font-size="none" text-anchor="none" style="mix-blend-mode: normal"><path d="M0,224v-224h224v224z" fill="#f1c40f"/><g id="Layer_1"><g id="surface1"><path d="M149.33333,196h-74.66667c-25.66667,0 -46.66667,-21 -46.66667,-46.66667v-74.66667c0,-25.66667 21,-46.66667 46.66667,-46.66667h74.66667c25.66667,0 46.66667,21 46.66667,46.66667v74.66667c0,25.66667 -21,46.66667 -46.66667,46.66667z" fill="#304ffe"/><path d="M28,74.66667v74.66667c0,25.66667 21,46.66667 46.66667,46.66667h74.66667c25.66667,0 46.66667,-21 46.66667,-46.66667v-74.66667c0,-4.66667 -0.46667,-8.86667 -1.86667,-13.06667c-26.13333,-21 -59.73333,-33.6 -96.13333,-33.6c-17.26667,0 -34.06667,2.8 -49.93333,8.4c-12.13333,8.4 -20.06667,22.4 -20.06667,38.26667z" fill-opacity="0.2902" fill="#304ffe"/><path d="M98,37.33333c-23.33333,0 -44.8,5.6 -64.4,14.93333c-3.73333,7 -5.6,14.46667 -5.6,22.4v74.66667c0,25.66667 21,46.66667 46.66667,46.66667h74.66667c25.66667,0 46.66667,-21 46.66667,-46.66667v-73.73333c-25.66667,-23.8 -60.2,-38.26667 -98,-38.26667z" fill="#6200ea"/><path d="M196,88.66667c-24.73333,-25.66667 -59.26667,-42 -98,-42c-25.2,0 -49,7 -69.06667,19.13333c-0.46667,2.8 -0.93333,5.6 -0.93333,8.86667v74.66667c0,25.66667 21,46.66667 46.66667,46.66667h74.66667c25.66667,0 46.66667,-21 46.66667,-46.66667z" fill="#673ab7"/><path d="M196,102.66667c-22.86667,-28.46667 -58.33333,-46.66667 -98,-46.66667c-26.13333,0 -49.93333,7.93333 -70,21.46667v71.86667c0,25.66667 21,46.66667 46.66667,46.66667h74.66667c25.66667,0 46.66667,-21 46.66667,-46.66667z" fill="#8e24aa"/><path d="M196,149.33333v-30.8c-21,-31.73333 -56.93333,-53.2 -98,-53.2c-26.13333,0 -50.4,8.86667 -70,23.33333v60.66667c0,25.66667 21,46.66667 46.66667,46.66667h74.66667c25.66667,0 46.66667,-21 46.66667,-46.66667z" fill="#c2185b"/><path d="M196,149.33333v-11.2c-16.8,-37.33333 -54.13333,-63.46667 -98,-63.46667c-26.6,0 -51.33333,9.8 -70,26.13333v48.53333c0,25.66667 21,46.66667 46.66667,46.66667h74.66667c25.66667,0 46.66667,-21 46.66667,-46.66667z" fill="#d81b60"/><path d="M194.13333,162.4c-8.86667,-44.8 -48.53333,-78.4 -96.13333,-78.4c-27.53333,0 -52.26667,11.2 -70,29.4v35.93333c0,25.66667 21,46.66667 46.66667,46.66667h74.66667c21,0 39.2,-14 44.8,-33.6z" fill="#f50057"/><path d="M186.2,177.33333c-2.33333,-46.66667 -40.6,-84 -88.2,-84c-28.46667,0 -53.66667,13.53333 -70,34.53333v21.46667c0,25.66667 21,46.66667 46.66667,46.66667h74.66667c14.93333,0 28.46667,-7.46667 36.86667,-18.66667z" fill="#ff1744"/><path d="M98,102.66667c-30.33333,0 -56.46667,16.8 -70,42v4.66667c0,25.66667 21,46.66667 46.66667,46.66667h74.66667c10.26667,0 20.06667,-3.26667 27.53333,-9.33333c0,-1.4 0.46667,-3.26667 0.46667,-4.66667c0,-43.86667 -35.46667,-79.33333 -79.33333,-79.33333z" fill="#ff5722"/><path d="M98,112c-32.66667,0 -59.73333,21.93333 -67.66667,52.26667c6.06667,18.66667 23.8,31.73333 44.33333,31.73333h74.66667c6.53333,0 12.13333,-1.4 17.73333,-3.73333c0.46667,-3.26667 0.93333,-7 0.93333,-10.26667c0,-38.73333 -31.26667,-70 -70,-70z" fill="#ff6f00"/><path d="M98,121.33333c-32.2,0 -58.33333,24.73333 -60.2,56c8.4,11.2 21.93333,18.66667 36.86667,18.66667h74.66667c2.8,0 5.13333,-0.46667 7.93333,-0.93333c0.93333,-4.2 1.4,-8.4 1.4,-13.06667c0,-33.6 -27.06667,-60.66667 -60.66667,-60.66667z" fill="#ff9800"/><path d="M147.46667,196c1.4,-4.66667 1.86667,-9.33333 1.86667,-14c0,-28.46667 -22.86667,-51.33333 -51.33333,-51.33333c-28.46667,0 -51.33333,22.86667 -51.33333,51.33333c0,1.4 0,3.26667 0.46667,4.66667c7.93333,5.6 17.26667,9.33333 27.53333,9.33333z" fill="#ffc107"/><path d="M98,140c-23.33333,0 -42,18.66667 -42,42c0,3.73333 0.46667,7.46667 1.4,10.73333c5.13333,2.33333 11.2,3.26667 17.26667,3.26667h63c1.4,-4.2 2.33333,-8.86667 2.33333,-14c0,-23.33333 -18.66667,-42 -42,-42z" fill="#ffd54f"/><path d="M98,149.8c-18.2,0 -32.66667,14.46667 -32.66667,32.66667c0,4.66667 0.93333,8.86667 2.8,13.06667c2.33333,0.46667 4.2,0.46667 6.53333,0.46667h53.2c1.86667,-4.2 2.8,-8.86667 2.8,-13.53333c0,-18.2 -14.46667,-32.66667 -32.66667,-32.66667z" fill="#ffe082"/><path d="M98,159.13333c-13.06667,0 -23.33333,10.26667 -23.33333,23.33333c0,5.13333 1.86667,9.8 4.66667,13.53333h37.33333c2.8,-3.73333 4.66667,-8.4 4.66667,-13.53333c0,-13.06667 -10.26667,-23.33333 -23.33333,-23.33333z" fill="#ffecb3"/><path d="M140,177.33333h-56c-20.53333,0 -37.33333,-16.8 -37.33333,-37.33333v-56c0,-20.53333 16.8,-37.33333 37.33333,-37.33333h56c20.53333,0 37.33333,16.8 37.33333,37.33333v56c0,20.53333 -16.8,37.33333 -37.33333,37.33333zM84,56c-15.4,0 -28,12.6 -28,28v56c0,15.4 12.6,28 28,28h56c15.4,0 28,-12.6 28,-28v-56c0,-15.4 -12.6,-28 -28,-28z" fill="#ffffff"/><path d="M112,144.66667c-18.2,0 -32.66667,-14.46667 -32.66667,-32.66667c0,-18.2 14.46667,-32.66667 32.66667,-32.66667c18.2,0 32.66667,14.46667 32.66667,32.66667c0,18.2 -14.46667,32.66667 -32.66667,32.66667zM112,88.66667c-13.06667,0 -23.33333,10.26667 -23.33333,23.33333c0,13.06667 10.26667,23.33333 23.33333,23.33333c13.06667,0 23.33333,-10.26667 23.33333,-23.33333c0,-13.06667 -10.26667,-23.33333 -23.33333,-23.33333z" fill="#ffffff"/><path d="M149.33333,74.66667c0,2.8 -1.86667,4.66667 -4.66667,4.66667c-2.8,0 -4.66667,-1.86667 -4.66667,-4.66667c0,-2.8 1.86667,-4.66667 4.66667,-4.66667c2.8,0 4.66667,1.86667 4.66667,4.66667z" fill="#ffffff"/></g></g></g></svg>
