<?xml version="1.0"?>
<svg xmlns="http://www.w3.org/2000/svg" xmlns:xlink="http://www.w3.org/1999/xlink" version="1.1" viewBox="0 0 224 224" width="48px" height="48px"><g fill="none" fill-rule="nonzero" stroke="none" stroke-width="1" stroke-linecap="butt" stroke-linejoin="miter" stroke-miterlimit="10" stroke-dasharray="" stroke-dashoffset="0" font-family="none" font-weight="none" font-size="none" text-anchor="none" style="mix-blend-mode: normal"><path d="M0,224v-224h224v224z" fill="#f1c40f"/><g id="Layer_1"><circle cx="24" cy="24" transform="scale(4.66667,4.66667)" r="20" fill="#d32f2f"/><path d="M91.28933,126c0,-15.53533 -2.62267,-20.916 -2.62267,-27.01067c0,-13.85533 9.94467,-14.98933 14.14933,-14.98933c5.992,0 13.85067,4.06467 13.85067,11.66667c0,11.06467 -9.33333,12.46467 -9.33333,12.46467c0,0 0,3.86867 0,10.682c0,7.18667 1.736,16.52 14.574,16.52c20.59867,0 22.75933,-28.70933 22.75933,-36.57267c0,-10.86867 -6.95333,-33.42733 -31.67267,-33.42733c-32.97,0 -38.32733,29.46067 -38.32733,37.33333c0,3.36933 0.616,9.90267 1.25533,12.446c9.828,2.42667 7.53667,11.08333 4.872,13.51c-3.86867,3.57467 -20.12733,4.27 -20.12733,-29.106c0,-31.78933 28.336,-48.18333 53.20933,-48.18333c23.66933,0 49.45733,16.34267 49.45733,47.81467c0,28.084 -20.19267,50.19933 -41.40267,50.19933c-12.73067,0 -19.48333,-10.49067 -19.48333,-10.49067c0,19.81 -16.13733,48.19733 -18.44733,52.47667c0,0 7.28933,-36.652 7.28933,-65.33333z" fill="#ffffff"/></g></g></svg>
