<?xml version="1.0"?>
<svg xmlns="http://www.w3.org/2000/svg" xmlns:xlink="http://www.w3.org/1999/xlink" version="1.1" viewBox="0 0 224 224" width="48px" height="48px"><g fill="none" fill-rule="nonzero" stroke="none" stroke-width="1" stroke-linecap="butt" stroke-linejoin="miter" stroke-miterlimit="10" stroke-dasharray="" stroke-dashoffset="0" font-family="none" font-weight="none" font-size="none" text-anchor="none" style="mix-blend-mode: normal"><path d="M0,224v-224h224v224z" fill="#f1c40f"/><g><g id="surface1"><path d="M201.59636,158.19271c-1.85938,9.80729 -9.78906,17.28125 -19.59636,18.66667c-15.40364,2.33333 -41.07031,5.14062 -70,5.14062c-28.47396,0 -54.14062,-2.80729 -70,-5.14062c-9.80729,-1.38542 -17.73698,-8.85938 -19.59636,-18.66667c-1.8776,-10.71875 -3.73698,-26.59636 -3.73698,-46.19271c0,-19.59636 1.85938,-35.47396 3.73698,-46.19271c1.85938,-9.80729 9.78907,-17.28125 19.59636,-18.66667c15.40364,-2.33333 41.07031,-5.14063 70,-5.14063c28.92969,0 54.14063,2.80729 70,5.14063c9.80729,1.38542 17.73698,8.85937 19.59636,18.66667c1.87761,10.71875 4.21094,26.59635 4.21094,46.19271c-0.47396,19.59636 -2.33333,35.47396 -4.21094,46.19271z" fill="#ff3d00"/><path d="M93.33333,144.66667v-65.33333l56,32.66667z" fill="#ffffff"/></g></g></g></svg>
