<?xml version="1.0"?>
<svg xmlns="http://www.w3.org/2000/svg" xmlns:xlink="http://www.w3.org/1999/xlink" version="1.1" viewBox="0 0 224 224" width="48px" height="48px"><g fill="none" fill-rule="nonzero" stroke="none" stroke-width="1" stroke-linecap="butt" stroke-linejoin="miter" stroke-miterlimit="10" stroke-dasharray="" stroke-dashoffset="0" font-family="none" font-weight="none" font-size="none" text-anchor="none" style="mix-blend-mode: normal"><path d="M0,224v-224h224v224z" fill="#f1c40f"/><g><g id="surface1"><path d="M42,130.66667h14v65.33333h-14z" fill="#607d8b"/><path d="M42,182h121.33333v14h-121.33333z" fill="#607d8b"/><path d="M149.33333,130.66667h14v65.33333h-14z" fill="#607d8b"/><path d="M70,158.66667h65.33333v14h-65.33333z" fill="#607d8b"/><path d="M70.38281,131.88802l64.95052,6.98177l-1.49479,13.92708l-64.95052,-7z" fill="#a68a6e"/><path d="M172.06511,28l9.95312,64.56771l-13.83593,2.13281l-9.97136,-64.56771z" fill="#ef6c00"/><path d="M132.85417,38.42708l31.88281,57.02083l-12.23177,6.83594l-31.86458,-57.02083z" fill="#ff9800"/><path d="M95.66667,67.90364l53.66667,37.24219l-7.98437,11.52083l-53.66667,-37.26042z" fill="#d38b28"/><path d="M78.85938,99.02083l61.48698,22.11198l-4.73958,13.17969l-61.48698,-22.11198z" fill="#c09553"/></g></g></g></svg>
