<?xml version="1.0"?>
<svg xmlns="http://www.w3.org/2000/svg" xmlns:xlink="http://www.w3.org/1999/xlink" version="1.1" viewBox="0 0 224 224" width="48px" height="48px"><g fill="none" fill-rule="nonzero" stroke="none" stroke-width="1" stroke-linecap="butt" stroke-linejoin="miter" stroke-miterlimit="10" stroke-dasharray="" stroke-dashoffset="0" font-family="none" font-weight="none" font-size="none" text-anchor="none" style="mix-blend-mode: normal"><path d="M0,224v-224h224v224z" fill="#f1c40f"/><g><g id="surface1"><path d="M67.84896,28h9.91667l6.39843,25.64844h0.61979l6.10677,-25.63021h10.00781l-11.46614,37.4974v27.81771h-9.86198v-26.61458z" fill="#455a64"/><path d="M100.44271,55.63542c0,-3.64583 1.18489,-6.58073 3.55468,-8.73177c2.35157,-2.1875 5.50521,-3.28125 9.4974,-3.28125c3.6276,0 6.58073,1.14844 8.89583,3.44532c2.3151,2.27864 3.46354,5.23177 3.46354,8.84114v24.42708c0,4.04687 -1.13021,7.21875 -3.39062,9.53386c-2.26042,2.3151 -5.37761,3.46354 -9.36979,3.46354c-3.84636,0 -6.89062,-1.20312 -9.20573,-3.57292c-2.29688,-2.36979 -3.44531,-5.57812 -3.44531,-9.58854zM109.44792,81.04688c0,1.29427 0.30989,2.3151 0.96614,3.02604c0.61979,0.69271 1.49479,1.03906 2.66146,1.03906c1.18489,0 2.11458,-0.34635 2.82552,-1.07552c0.69271,-0.71094 1.05729,-1.71354 1.05729,-2.98958v-25.75782c0,-1.03906 -0.38281,-1.8776 -1.09375,-2.51562c-0.69271,-0.61979 -1.64062,-0.94792 -2.78906,-0.94792c-1.05729,0 -1.95052,0.32812 -2.60677,0.94792c-0.67448,0.63802 -1.02083,1.47656 -1.02083,2.51562z" fill="#455a64"/><path d="M158.28386,44.82552v48.50781h-8.75v-5.90625c-1.62239,1.93229 -3.28125,3.39063 -5.04948,4.39323c-1.73177,1.00261 -3.42708,1.51302 -5.06771,1.51302c-2.02344,0 -3.53646,-0.69271 -4.57552,-2.11458c-1.02083,-1.40364 -1.53125,-3.5 -1.53125,-6.32552v-40.06771h8.75v36.80469c0,1.09375 0.18229,1.91406 0.54688,2.42448c0.36458,0.47396 0.96614,0.74739 1.78646,0.74739c0.65625,0 1.45833,-0.32812 2.42448,-1.00261c1.0026,-0.65625 1.89583,-1.51302 2.71614,-2.53385v-36.44011z" fill="#455a64"/><path d="M181.07031,123.375c0,-10.91927 -9.05989,-19.77864 -20.21614,-19.77864c-15.91406,-0.67448 -32.21094,-0.94792 -48.85417,-0.92969c-16.625,-0.01823 -32.92187,0.27344 -48.85417,0.92969c-11.13802,0 -20.19792,8.85937 -20.19792,19.77864c-0.65625,8.64063 -0.96614,17.29948 -0.94792,25.95833c-0.01823,8.65886 0.27344,17.29948 0.94792,25.95833c0,10.9375 9.04167,19.79688 20.19792,19.79688c15.93229,0.65625 32.22917,0.92968 48.85417,0.91146c16.625,0.03646 32.94011,-0.25521 48.85417,-0.91146c11.15625,0 20.21614,-8.85938 20.21614,-19.79688c0.65625,-8.65886 0.96615,-17.29948 0.92969,-25.95833c0.03646,-8.65886 -0.27344,-17.31771 -0.92969,-25.95833z" fill="#ffffff"/><path d="M157.97396,141.62239c-1.02083,0 -1.71354,0.25521 -2.13282,0.83854c-0.30989,0.41927 -0.69271,1.38542 -0.69271,3.5v3.60937h5.57812v-3.60937c0,-2.07813 -0.38281,-3.0625 -0.71093,-3.53646c-0.40104,-0.54687 -1.05729,-0.80208 -2.04167,-0.80208z" fill="#f44336"/><path d="M125.36198,141.80469c-0.40104,0.20052 -0.78385,0.49219 -1.20312,0.89323v27.41667c0.52864,0.52864 1.02083,0.89323 1.47656,1.13021c0.52864,0.27343 1.05729,0.38281 1.62239,0.38281c1.07552,0 1.40365,-0.41927 1.51302,-0.58333c0.27344,-0.32813 0.56511,-1.02083 0.56511,-2.51563v-23.35156c0,-1.29427 -0.25521,-2.29687 -0.71094,-2.91667c-0.61979,-0.83854 -1.85937,-1.16667 -3.26302,-0.45573z" fill="#f44336"/><path d="M181.07031,123.375c0,-10.91927 -9.05989,-19.77864 -20.21614,-19.77864c-15.91406,-0.67448 -32.21094,-0.94792 -48.85417,-0.92969c-16.625,-0.01823 -32.92187,0.27344 -48.85417,0.92969c-11.13802,0 -20.19792,8.85937 -20.19792,19.77864c-0.65625,8.64063 -0.96614,17.29948 -0.94792,25.95833c-0.01823,8.65886 0.27344,17.29948 0.94792,25.95833c0,10.9375 9.04167,19.79688 20.19792,19.79688c15.93229,0.65625 32.22917,0.92968 48.85417,0.91146c16.625,0.03646 32.94011,-0.25521 48.85417,-0.91146c11.15625,0 20.21614,-8.85938 20.21614,-19.79688c0.65625,-8.65886 0.96615,-17.29948 0.92969,-25.95833c0.03646,-8.65886 -0.27344,-17.31771 -0.92969,-25.95833zM73.26302,179.11979c0,0.51042 -0.41927,0.94792 -0.94792,0.94792h-9.57031c-0.52865,0 -0.96615,-0.4375 -0.96615,-0.94792v-51.47917h-8.93229c-0.51042,0 -0.94792,-0.41927 -0.94792,-0.94792v-8.87761c0,-0.52864 0.4375,-0.96614 0.94792,-0.96614h29.36719c0.52864,0 0.96614,0.4375 0.96614,0.96614v8.87761c0,0.52864 -0.4375,0.94792 -0.96614,0.94792h-8.95052zM107.31511,179.11979c0,0.51042 -0.4375,0.94792 -0.96614,0.94792h-8.49479c-0.54687,0 -0.96614,-0.4375 -0.96614,-0.94792v-2.57032c-1.13021,1.07552 -2.27864,1.95052 -3.44531,2.60677c-1.85938,1.05729 -3.62761,1.56771 -5.41407,1.56771c-2.27864,0 -4.02864,-0.82032 -5.21354,-2.40625c-1.11198,-1.51302 -1.67708,-3.75521 -1.67708,-6.63542v-37.80729c0,-0.51042 0.41927,-0.94792 0.96614,-0.94792h8.49479c0.52864,0 0.94792,0.4375 0.94792,0.94792v34.67188c0,1.13021 0.21875,1.60417 0.34635,1.78646c0.05469,0.07292 0.23698,0.30989 0.94792,0.30989c0.25521,0 0.80208,-0.10937 1.82292,-0.78385c0.82032,-0.54688 1.54948,-1.22136 2.20573,-1.98698v-33.99739c0,-0.51042 0.4375,-0.94792 0.96614,-0.94792h8.49479c0.52865,0 0.96615,0.4375 0.96615,0.94792v45.24479zM140,169.73177c0,3.44531 -0.74739,6.125 -2.20573,7.98437c-1.53125,1.95052 -3.71875,2.91667 -6.52604,2.91667c-1.78646,0 -3.42708,-0.36458 -4.88542,-1.09375c-0.76562,-0.38281 -1.51302,-0.89323 -2.22396,-1.51302v1.09375c0,0.52864 -0.4375,0.94792 -0.96614,0.94792h-8.56771c-0.54687,0 -0.96614,-0.41927 -0.96614,-0.94792v-61.32292c0,-0.52865 0.41927,-0.94792 0.96614,-0.94792h8.56771c0.52864,0 0.96614,0.41927 0.96614,0.94792v17.35417c0.69271,-0.63802 1.44011,-1.16667 2.20573,-1.60417c1.44011,-0.80208 2.91667,-1.20313 4.39323,-1.20313c2.98958,0 5.32292,1.11198 6.92708,3.29948c1.53125,2.09636 2.29688,5.14063 2.29688,9.02344zM171.40886,157.57292c0,0.52864 -0.4375,0.94792 -0.96614,0.94792h-15.27604v7.56511c0,2.77083 0.38281,3.95573 0.69271,4.44792c0.23698,0.40104 0.71093,0.92969 2.04167,0.92969c1.07552,0 1.80468,-0.25521 2.1875,-0.76563c0.16406,-0.27344 0.63802,-1.3125 0.63802,-4.61198v-3.15364c0,-0.52865 0.4375,-0.94792 0.96615,-0.94792h8.75c0.52864,0 0.94792,0.41927 0.94792,0.94792v3.40885c0,4.86719 -1.16667,8.60417 -3.44532,11.11979c-2.27864,2.53386 -5.72396,3.82812 -10.24479,3.82812c-4.06511,0 -7.34636,-1.38542 -9.69792,-4.0651c-2.33333,-2.66146 -3.53646,-6.32552 -3.53646,-10.88282v-20.32552c0,-4.15625 1.29427,-7.60157 3.88282,-10.24479c2.57031,-2.64323 5.94271,-3.99219 10.00781,-3.99219c4.13802,0 7.40104,1.25782 9.66146,3.73698c2.24219,2.46093 3.3724,5.99739 3.3724,10.51823v11.53906z" fill="#f44336"/></g></g></g></svg>
