<?xml version="1.0"?>
<svg xmlns="http://www.w3.org/2000/svg" xmlns:xlink="http://www.w3.org/1999/xlink" version="1.1" viewBox="0 0 224 224" width="48px" height="48px"><g fill="none" fill-rule="nonzero" stroke="none" stroke-width="1" stroke-linecap="butt" stroke-linejoin="miter" stroke-miterlimit="10" stroke-dasharray="" stroke-dashoffset="0" font-family="none" font-weight="none" font-size="none" text-anchor="none" style="mix-blend-mode: normal"><path d="M0,224v-224h224v224z" fill="#f1c40f"/><g id="Layer_1"><g><g fill="#ef4823"><g><path d="M117.8625,61.425c-0.39375,0.04375 -0.7875,0 -1.225,-0.21875c-1.79375,-0.7875 -4.24375,-0.39375 -5.95,0.39375c-1.8375,0.83125 -2.3625,2.49375 -2.14375,4.375c0.21875,2.1 0.875,4.15625 1.05,6.3c0.175,1.925 -0.13125,3.80625 -0.175,5.73125c-0.04375,1.96875 0,4.41875 2.14375,5.3375c1.75,0.74375 3.89375,0.39375 5.46875,-0.74375c2.40625,-1.75 2.7125,-5.075 2.8,-7.83125c0.04375,-3.0625 0.0875,-9.5375 -1.96875,-13.34375z"/></g></g><g fill="#d6e5e5"><g><path d="M178.5875,127.88125c-0.91875,-5.55625 -2.40625,-11.24375 -5.99375,-15.6625c-6.5625,-8.05 -17.89375,-10.80625 -27.86875,-10.9375c-13.86875,-0.175 -27.5625,2.625 -41.3875,2.31875c-13.34375,-0.30625 -27.3875,-2.45 -40.46875,1.00625c-7.74375,2.05625 -13.86875,7.4375 -16.23125,15.18125c-4.76875,15.53125 0.175,32.1125 -1.35625,47.99375v0c0.7875,2.0125 1.3125,4.1125 2.66875,5.90625c1.35625,1.79375 3.01875,3.325 4.9875,4.4625c4.025,2.31875 8.4875,3.36875 13.0375,3.85c11.85625,1.26875 23.975,0 35.83125,-0.525c6.69375,-0.30625 13.3875,-0.525 20.08125,-0.35c6.34375,0.175 12.64375,1.26875 18.94375,1.75c10.2375,0.7875 23.93125,1.26875 31.325,-7.30625c6.65,-7.74375 7.0875,-19.1625 7.39375,-28.83125c0.21875,-6.3 0.04375,-12.64375 -0.9625,-18.85625zM81.59375,168.2625c0,0.83125 -0.35,1.6625 -1.00625,2.1875c-0.21875,0.91875 -0.91875,1.70625 -2.1,1.75c-0.56875,0 -1.1375,0 -1.70625,0.04375c-0.9625,0.30625 -1.75,0.6125 -2.8875,0.35c-1.225,-0.30625 -1.925,-1.4875 -1.925,-2.625c0,-0.13125 -0.04375,-0.21875 -0.04375,-0.35v-0.9625c0,-0.13125 0,-0.2625 0.04375,-0.39375c0.175,-4.2875 1.1375,-8.44375 0.91875,-12.775c-0.21875,-4.59375 -1.00625,-9.14375 -1.1375,-13.7375c-0.0875,-4.2875 0.2625,-8.70625 -0.30625,-12.99375c-0.13125,-0.91875 -0.35,-1.925 -0.525,-2.93125h-6.0375c-1.4875,0 -2.975,0.21875 -4.4625,0.175c-3.71875,-0.13125 -6.08125,-2.1875 -5.5125,-6.125c0.0875,-0.4375 0.21875,-0.7875 0.48125,-1.05c0.175,-0.9625 0.83125,-1.75 2.1,-1.75c6.0375,0 12.11875,-0.175 18.15625,0.21875c4.8125,0.30625 10.0625,1.00625 14.83125,-0.04375c0.35,-0.39375 0.875,-0.6125 1.575,-0.6125h0.875c2.1,0 3.19375,2.40625 2.14375,3.85c0.0875,2.05625 0.35,4.41875 -2.05625,5.20625c-0.74375,0.2625 -1.4,0.13125 -1.925,-0.175c-0.56875,0.21875 -1.225,0.35 -1.925,0.35c-3.10625,0.04375 -6.25625,0.04375 -9.40625,0c0.21875,14.13125 1.79375,28.21875 1.8375,42.39375zM111.7375,169.75c-0.175,1.09375 -1.1375,1.79375 -2.1875,1.925c-2.7125,0.39375 -4.1125,-0.56875 -4.9,-2.1c-2.8,1.225 -5.99375,1.79375 -8.26875,1.70625c-5.55625,-0.21875 -7.91875,-4.76875 -8.53125,-9.8c-0.525,-4.375 -0.04375,-8.79375 -0.35,-13.16875c-0.175,-2.49375 -0.39375,-4.9875 -0.2625,-7.48125c0.04375,-1.05 0.0875,-2.1875 0.39375,-3.2375c-0.175,-0.48125 -0.13125,-1.05 0.2625,-1.6625c0.04375,-0.175 0.13125,-0.39375 0.175,-0.56875c0.21875,-0.39375 0.48125,-0.74375 0.875,-1.00625c0.91875,-0.6125 1.925,-0.4375 2.93125,-0.21875c1.35625,0.30625 2.0125,1.4875 1.88125,2.8c-0.21875,2.23125 0.30625,4.50625 0.7,6.69375c0.48125,2.3625 0.74375,4.6375 0.83125,7.04375c0.175,4.2 0.21875,8.35625 0.21875,12.55625c0.13125,0.04375 0.2625,0.04375 0.48125,0.0875c1.18125,0.175 2.40625,0 3.5875,-0.21875c1.4,-0.2625 2.84375,-0.74375 4.15625,-1.3125c0.04375,0 0.0875,-0.04375 0.13125,-0.04375c0,-0.4375 0,-0.83125 0,-1.225c-0.175,-4.1125 -0.56875,-8.225 -0.6125,-12.38125c-0.04375,-4.24375 0.175,-8.53125 0.175,-12.775c0,-1.225 0.83125,-2.58125 2.23125,-2.58125h1.3125c0.30625,0 0.6125,0.04375 0.875,0.13125c1.3125,-0.30625 2.8875,0.35 3.01875,2.05625c0.525,6.125 1.225,12.11875 1.3125,18.2875c0.13125,5.5125 0.39375,11.06875 -0.4375,16.49375zM141.09375,154.2625c0.0875,4.9 0.91875,14.39375 -5.38125,16.14375c-3.10625,0.875 -6.2125,-0.0875 -8.925,-1.61875c-0.65625,-0.35 -1.26875,-0.74375 -1.925,-1.09375c-0.0875,0.91875 -0.30625,1.61875 -1.00625,2.31875c-0.65625,0.7 -1.70625,0.91875 -2.58125,0.65625c-1.4,1.00625 -3.80625,0.56875 -3.80625,-1.61875c-0.04375,-16.8 -1.70625,-33.5125 -1.3125,-50.3125c0,-0.21875 0.04375,-0.39375 0.0875,-0.6125c0,-1.4 1.05,-2.8 2.75625,-2.40625c0.91875,0.21875 1.70625,0.74375 2.625,0.875c1.05,0.13125 1.88125,1.1375 1.925,2.1875c0.21875,4.025 0.04375,8.05 -0.04375,12.075c-0.04375,0.91875 -0.04375,1.8375 -0.04375,2.75625c4.1125,-2.275 9.5375,-2.14375 13.3875,0.7875c6.3,4.725 4.15625,13.16875 4.24375,19.8625zM169.96875,152.075c0.0875,1.225 -0.91875,2.58125 -2.23125,2.58125c-2.625,0 -5.29375,-0.21875 -7.91875,-0.21875c-1.4875,0 -3.89375,-0.175 -5.55625,0.21875c-0.21875,2.275 -0.7875,4.50625 -1.00625,6.78125c-0.13125,1.61875 0.2625,3.10625 1.4875,3.85c1.1375,0.13125 2.275,0.0875 3.325,-0.04375c0.6125,-0.04375 1.26875,-0.175 1.925,-0.2625c0.6125,-0.35 1.1375,-0.74375 1.53125,-1.26875c0.74375,-0.9625 0.91875,-3.15 2.1,-4.2c1.61875,-1.44375 3.2375,-1.35625 4.94375,-0.0875c3.5875,2.7125 -1.18125,7.875 -3.89375,9.0125c-3.10625,2.7125 -8.3125,3.10625 -12.1625,1.4c-0.2625,-0.0875 -0.525,-0.13125 -0.83125,-0.21875c-2.3625,-0.74375 -4.50625,-2.0125 -5.3375,-4.50625c-0.48125,-1.4875 -0.56875,-2.975 -0.525,-4.4625c-0.875,-3.4125 -0.2625,-7.56875 0,-10.7625c0.175,-2.23125 0.525,-4.50625 0.525,-6.7375c0.04375,-2.40625 -0.13125,-5.38125 1.225,-7.56875c3.2375,-5.1625 11.2,-5.29375 16.1,-2.58125c3.10625,1.70625 5.425,4.1125 6.16875,7.65625c0.83125,3.7625 -0.175,7.56875 0.13125,11.41875z"/></g></g><g fill="#d6e5e5"><g><path d="M162.61875,142.14375c-0.83125,-1.96875 -3.2375,-3.63125 -5.425,-3.19375c-2.1875,0.4375 -2.5375,3.15 -2.66875,4.94375c-0.0875,1.225 -0.0875,2.45 -0.0875,3.71875c0.9625,0.04375 1.925,0.04375 2.93125,0.0875c0.65625,0.04375 4.94375,0.875 5.075,0.56875c0.7875,-1.88125 0.9625,-4.2 0.175,-6.125z"/></g></g><g fill="#d6e5e5"><g><path d="M133.525,150.4125c-0.04375,-1.96875 -0.13125,-3.98125 -0.4375,-5.95c-0.175,-1.09375 -0.525,-2.8875 -0.91875,-3.36875c-0.91875,-1.1375 -6.7375,-2.7125 -7.30625,-0.6125c-0.175,0.74375 -0.6125,1.225 -1.1375,1.53125c0,0.35 0.04375,0.74375 0.04375,1.09375c0.21875,4.94375 0.39375,9.93125 0.525,14.875c0,0 0,0.04375 0.04375,0.04375c0.65625,1.79375 3.0625,2.975 4.725,3.5875c1.4,0.48125 2.40625,0.65625 2.8875,-0.35c1.575,-3.2375 1.61875,-7.35 1.575,-10.85z"/></g></g><g fill="#ef4823"><g><path d="M134.4875,165.6375c-0.04375,0.04375 -0.13125,0.0875 -0.175,0.13125c0.30625,-0.175 0.6125,-0.39375 0.83125,-0.7c0.04375,-0.04375 0.0875,-0.13125 0.13125,-0.175c-0.2625,0.2625 -0.525,0.525 -0.7875,0.74375z"/></g></g><g fill="#ef4823"><g><path d="M207.4625,70.74375c-7.04375,-20.3875 -20.43125,-38.10625 -39.94375,-47.95c-22.3125,-11.24375 -48.5625,-12.29375 -72.8,-8.44375c-21.7875,3.5 -44.75625,11.375 -61.075,26.775c-8.575,8.09375 -15.18125,17.89375 -18.68125,29.225c-3.5,11.375 -4.55,23.23125 -5.29375,35.04375c-0.04375,0.48125 -0.175,0.875 -0.4375,1.18125c0,0.0875 0.04375,0.21875 0.04375,0.35c0,23.14375 -0.48125,47.38125 13.16875,67.33125c11.06875,16.23125 28.21875,26.90625 46.9,32.24375c38.5,11.025 84.9625,4.2 115.89375,-22.225c32.41875,-27.69375 35.39375,-75.38125 22.225,-113.53125zM128.8875,59.9375c0.04375,-1.05 0.0875,-2.1875 0.39375,-3.2375c-0.175,-0.48125 -0.13125,-1.05 0.2625,-1.6625c0.04375,-0.175 0.13125,-0.39375 0.175,-0.56875c0.21875,-0.39375 0.48125,-0.74375 0.875,-1.00625c0.91875,-0.6125 1.925,-0.4375 2.93125,-0.21875c1.35625,0.30625 2.0125,1.4875 1.88125,2.8c-0.21875,2.23125 0.30625,4.50625 0.7,6.69375c0.48125,2.3625 0.74375,4.6375 0.83125,7.04375c0.175,4.2 0.21875,8.35625 0.21875,12.55625c0.13125,0.04375 0.2625,0.04375 0.48125,0.0875c1.18125,0.175 2.40625,0 3.5875,-0.21875c1.4,-0.2625 2.84375,-0.74375 4.15625,-1.3125c0.04375,0 0.0875,-0.04375 0.13125,-0.04375c0,-0.4375 0,-0.83125 0,-1.225c-0.175,-4.1125 -0.56875,-8.225 -0.6125,-12.38125c-0.04375,-4.24375 0.175,-8.53125 0.175,-12.775c0,-1.225 0.83125,-2.58125 2.23125,-2.58125h1.3125c0.30625,0 0.6125,0.04375 0.875,0.13125c1.3125,-0.30625 2.8875,0.35 3.01875,2.05625c0.525,6.125 1.225,12.11875 1.3125,18.2875c0.0875,5.46875 0.35,11.025 -0.48125,16.49375c-0.175,1.09375 -1.1375,1.79375 -2.1875,1.925c-2.7125,0.39375 -4.1125,-0.56875 -4.9,-2.1c-2.8,1.225 -5.99375,1.79375 -8.26875,1.70625c-5.55625,-0.21875 -7.91875,-4.76875 -8.53125,-9.8c-0.525,-4.375 -0.04375,-8.79375 -0.35,-13.16875c-0.13125,-2.49375 -0.35,-4.9875 -0.21875,-7.48125zM125.9125,62.9125c1.1375,3.85 1.35625,7.83125 1.44375,11.85625c0.04375,3.54375 0.04375,7.7875 -1.96875,10.89375c-0.48125,0.74375 -1.05,1.4 -1.6625,1.96875c-2.275,3.2375 -7.30625,4.375 -11.375,3.9375c-2.66875,-0.30625 -5.46875,-1.18125 -7.48125,-2.975c-0.04375,0 -0.04375,0 -0.0875,0c-1.225,0.0875 -2.58125,-0.91875 -2.58125,-2.23125v-1.96875c-1.18125,-3.01875 -0.7875,-6.125 -0.56875,-9.31875c-0.13125,-1.8375 -0.13125,-3.71875 -0.13125,-5.6c-0.35,-3.54375 -0.83125,-7.74375 0.83125,-10.80625c0.65625,-2.1 1.79375,-4.025 3.675,-5.29375c3.5875,-2.49375 9.05625,-3.10625 12.8625,-0.6125c3.5,2.3625 5.81875,6.08125 7.04375,10.15zM67.2,30.84375h0.875c0.175,0 0.39375,0 0.56875,0.04375c4.41875,0.2625 7.74375,1.75 10.45625,5.6c2.975,4.2 5.55625,8.70625 7.7875,13.3875c1.05,-1.44375 2.31875,-2.75625 3.5875,-4.06875c2.1875,-2.23125 3.89375,-4.375 5.38125,-7.175c1.3125,-2.49375 2.7125,-5.03125 5.03125,-6.7375c0.0875,-0.21875 0.13125,-0.4375 0.21875,-0.6125c0.6125,-1.79375 2.45,-1.6625 3.5875,-0.65625c1.4875,0 2.975,0.30625 4.50625,0.175c0.7875,-0.0875 1.4875,0.2625 1.925,0.7875c0.30625,0.04375 0.6125,0.0875 0.91875,0.13125c1.925,0.30625 2.3625,2.58125 1.35625,3.9375c-6.08125,8.225 -12.425,16.625 -19.99375,23.625c-0.04375,8.8375 -0.30625,17.675 -0.0875,26.5125c0.30625,0.35 0.525,0.83125 0.525,1.4875v0.13125c0.0875,0.30625 0.0875,0.6125 0,0.91875v0.2625c0,1.225 -0.83125,2.58125 -2.23125,2.58125h-0.4375c-0.2625,0 -0.48125,-0.04375 -0.7,-0.0875c-0.74375,0.0875 -1.53125,0.0875 -2.3625,0.0875c-1.4875,0 -3.36875,0.30625 -4.59375,-0.74375c-1.18125,-1.00625 -1.225,-2.49375 -1.4,-3.9375c-0.35,-2.8 -0.2625,-5.55625 -0.175,-8.35625c0.13125,-4.1125 -0.0875,-8.1375 -0.2625,-12.20625c-0.0875,-1.61875 -0.21875,-3.45625 -0.13125,-5.29375c-1.44375,-2.84375 -3.4125,-5.38125 -5.29375,-7.91875c-1.44375,-2.0125 -2.84375,-4.025 -4.41875,-5.95c-2.8,-3.4125 -6.69375,-7.65625 -6.43125,-12.38125c-0.7875,-1.44375 -0.2625,-3.54375 1.79375,-3.54375zM183.75,155.75c-0.875,9.40625 -3.0625,19.38125 -10.7625,25.6375c-9.45,7.65625 -23.275,7.04375 -34.69375,6.0375c-6.7375,-0.6125 -13.475,-1.575 -20.2125,-1.61875c-7,0 -13.95625,0.30625 -20.95625,0.65625c-11.6375,0.56875 -23.975,1.88125 -35.56875,-0.30625c-4.68125,-0.875 -9.3625,-2.40625 -13.2125,-5.3375c-1.96875,-1.4875 -3.80625,-3.36875 -5.11875,-5.46875c-1.44375,-2.275 -1.96875,-4.85625 -3.10625,-7.2625c-0.48125,-1.00625 -0.175,-1.8375 0.4375,-2.40625c0.39375,-4.9875 0.0875,-10.01875 -0.21875,-15.00625c-0.83125,-14.9625 -2.975,-34.475 10.10625,-45.15c8.79375,-7.175 21.30625,-7.74375 32.1125,-7.525c6.78125,0.13125 13.51875,0.65625 20.3,0.7875c6.86875,0.13125 13.69375,-0.6125 20.51875,-1.225c12.20625,-1.09375 25.24375,-2.58125 37.1,1.44375c9.84375,3.325 17.85,9.8875 20.9125,20.08125c3.5875,11.85625 3.5,24.45625 2.3625,36.6625z"/></g></g><g fill="#000000"><g><path d="M213.4125,73.80625c-6.2125,-20.51875 -17.89375,-38.63125 -35.875,-50.61875c-20.25625,-13.5625 -46.06875,-16.84375 -69.9125,-15.09375c-22.61875,1.6625 -45.7625,7.83125 -65.0125,20.125c-9.45,6.0375 -17.89375,13.95625 -24.0625,23.3625c-6.51875,9.93125 -9.84375,21.35 -11.6375,32.9875c-1.00625,6.60625 -1.4875,13.25625 -1.925,19.95c-0.04375,0.39375 0.04375,0.7875 0.175,1.1375c-0.39375,0.39375 -0.65625,0.9625 -0.65625,1.6625c0,13.16875 -0.2625,26.425 2.0125,39.4625c2.1,11.85625 6.65,23.14375 13.825,32.85625c12.775,17.28125 32.15625,27.69375 52.675,32.8125c38.89375,9.7125 84.9625,1.61875 115.71875,-24.98125c32.41875,-28.04375 36.44375,-74.76875 24.675,-113.6625zM185.2375,184.275c-30.975,26.425 -77.39375,33.25 -115.89375,22.225c-18.68125,-5.3375 -35.83125,-16.0125 -46.9,-32.24375c-13.60625,-19.95 -13.16875,-44.1875 -13.16875,-67.33125c0,-0.13125 0,-0.21875 -0.04375,-0.35c0.21875,-0.30625 0.39375,-0.7 0.4375,-1.18125c0.74375,-11.8125 1.79375,-23.66875 5.29375,-35.04375c3.45625,-11.33125 10.10625,-21.13125 18.68125,-29.225c16.31875,-15.4 39.2875,-23.275 61.075,-26.73125c24.28125,-3.85 50.53125,-2.8 72.8,8.44375c19.5125,9.84375 32.85625,27.60625 39.94375,47.95c13.16875,38.10625 10.19375,85.79375 -22.225,113.4875z"/></g></g><g fill="#d6e5e5"><g><path d="M181.43125,119.0875c-3.0625,-10.2375 -11.06875,-16.75625 -20.9125,-20.08125c-11.85625,-3.98125 -24.89375,-2.5375 -37.1,-1.44375c-6.825,0.6125 -13.65,1.35625 -20.51875,1.225c-6.78125,-0.13125 -13.51875,-0.65625 -20.3,-0.7875c-10.85,-0.21875 -23.3625,0.35 -32.1125,7.525c-13.0375,10.675 -10.9375,30.1875 -10.10625,45.15c0.2625,4.9875 0.56875,10.01875 0.21875,15.00625c-0.6125,0.525 -0.91875,1.4 -0.4375,2.40625c1.1375,2.40625 1.6625,4.9875 3.10625,7.2625c1.3125,2.1 3.15,3.98125 5.11875,5.46875c3.80625,2.93125 8.53125,4.4625 13.2125,5.3375c11.55,2.1875 23.93125,0.875 35.56875,0.30625c7,-0.35 13.95625,-0.7 20.95625,-0.65625c6.78125,0 13.475,1.00625 20.2125,1.61875c11.41875,1.00625 25.24375,1.61875 34.69375,-6.0375c7.7,-6.25625 9.8875,-16.23125 10.7625,-25.6375c1.09375,-12.20625 1.18125,-24.80625 -2.3625,-36.6625zM179.55,146.69375c-0.30625,9.66875 -0.74375,21.13125 -7.39375,28.83125c-7.39375,8.575 -21.0875,8.05 -31.325,7.30625c-6.3,-0.48125 -12.64375,-1.575 -18.94375,-1.75c-6.69375,-0.175 -13.3875,0.04375 -20.08125,0.35c-11.85625,0.56875 -24.01875,1.79375 -35.83125,0.525c-4.55,-0.48125 -9.05625,-1.575 -13.0375,-3.85c-1.925,-1.09375 -3.63125,-2.66875 -4.9875,-4.4625c-1.35625,-1.79375 -1.925,-3.85 -2.66875,-5.90625v0c1.53125,-15.88125 -3.36875,-32.41875 1.35625,-47.99375c2.3625,-7.7 8.4875,-13.125 16.23125,-15.18125c13.125,-3.45625 27.125,-1.35625 40.46875,-1.00625c13.825,0.35 27.5625,-2.49375 41.3875,-2.31875c9.975,0.13125 21.30625,2.8875 27.86875,10.9375c3.63125,4.4625 5.075,10.15 5.99375,15.6625c1.00625,6.25625 1.18125,12.6 0.9625,18.85625z"/></g></g><g fill="#ef4823"><g><path d="M93.0125,116.59375h-0.875c-0.7,0 -1.225,0.2625 -1.575,0.6125c-4.76875,1.05 -10.0625,0.35 -14.83125,0.04375c-6.0375,-0.39375 -12.11875,-0.21875 -18.15625,-0.21875c-1.26875,0 -1.96875,0.7875 -2.1,1.75c-0.21875,0.2625 -0.39375,0.65625 -0.48125,1.05c-0.6125,3.9375 1.75,5.95 5.5125,6.125c1.4875,0.04375 2.975,-0.175 4.4625,-0.175h6.0375c0.175,1.00625 0.4375,2.0125 0.525,2.93125c0.56875,4.2875 0.21875,8.70625 0.30625,12.99375c0.0875,4.59375 0.875,9.14375 1.1375,13.7375c0.21875,4.33125 -0.74375,8.4875 -0.91875,12.775c0,0.13125 -0.04375,0.2625 -0.04375,0.39375v0.9625c0,0.13125 0,0.21875 0.04375,0.35c-0.04375,1.1375 0.7,2.31875 1.925,2.625c1.1375,0.2625 1.925,-0.04375 2.8875,-0.35c0.56875,-0.04375 1.1375,-0.04375 1.70625,-0.04375c1.1375,0 1.88125,-0.7875 2.1,-1.75c0.65625,-0.48125 1.00625,-1.35625 1.00625,-2.1875c-0.04375,-14.175 -1.61875,-28.2625 -1.75,-42.4375c3.15,0.04375 6.25625,0.04375 9.40625,0c0.74375,0 1.4,-0.13125 1.925,-0.35c0.525,0.30625 1.18125,0.4375 1.925,0.175c2.40625,-0.7875 2.14375,-3.15 2.05625,-5.20625c0.9625,-1.4 -0.13125,-3.80625 -2.23125,-3.80625z"/></g></g><g fill="#ef4823"><g><path d="M112.21875,153.3c-0.0875,-6.16875 -0.7875,-12.1625 -1.3125,-18.2875c-0.13125,-1.70625 -1.70625,-2.3625 -3.01875,-2.05625c-0.2625,-0.0875 -0.56875,-0.13125 -0.875,-0.13125h-1.3125c-1.4,0 -2.23125,1.35625 -2.23125,2.58125c0,4.24375 -0.21875,8.53125 -0.175,12.775c0.04375,4.1125 0.4375,8.225 0.6125,12.38125c0,0.39375 0,0.7875 0,1.225c-0.04375,0 -0.0875,0.04375 -0.13125,0.04375c-1.3125,0.56875 -2.75625,1.00625 -4.15625,1.3125c-1.18125,0.21875 -2.40625,0.39375 -3.5875,0.21875c-0.175,-0.04375 -0.35,-0.04375 -0.48125,-0.0875c0,-4.2 -0.04375,-8.35625 -0.21875,-12.55625c-0.13125,-2.40625 -0.39375,-4.68125 -0.83125,-7.04375c-0.4375,-2.1875 -0.91875,-4.4625 -0.7,-6.69375c0.13125,-1.35625 -0.525,-2.49375 -1.88125,-2.8c-1.00625,-0.21875 -2.0125,-0.39375 -2.93125,0.21875c-0.39375,0.2625 -0.65625,0.6125 -0.875,1.00625c-0.04375,0.175 -0.13125,0.39375 -0.175,0.56875c-0.35,0.6125 -0.39375,1.18125 -0.2625,1.6625c-0.30625,1.05 -0.35,2.1875 -0.39375,3.2375c-0.13125,2.49375 0.0875,4.9875 0.2625,7.48125c0.30625,4.375 -0.175,8.79375 0.35,13.16875c0.6125,5.03125 2.975,9.58125 8.53125,9.8c2.275,0.0875 5.46875,-0.48125 8.26875,-1.70625c0.74375,1.575 2.1875,2.49375 4.9,2.1c1.05,-0.175 2.0125,-0.83125 2.1875,-1.925c0.7875,-5.46875 0.525,-11.025 0.4375,-16.49375z"/></g></g><g fill="#d6e5e5"><g><path d="M153.825,72.40625c-0.0875,-6.16875 -0.7875,-12.1625 -1.3125,-18.2875c-0.13125,-1.70625 -1.70625,-2.3625 -3.01875,-2.05625c-0.2625,-0.0875 -0.56875,-0.13125 -0.875,-0.13125h-1.3125c-1.4,0 -2.23125,1.35625 -2.23125,2.58125c0,4.24375 -0.21875,8.53125 -0.175,12.775c0.04375,4.1125 0.4375,8.225 0.6125,12.38125c0,0.39375 0,0.7875 0,1.225c-0.04375,0 -0.0875,0.04375 -0.13125,0.04375c-1.3125,0.56875 -2.75625,1.00625 -4.15625,1.3125c-1.18125,0.21875 -2.40625,0.39375 -3.5875,0.21875c-0.175,-0.04375 -0.35,-0.04375 -0.48125,-0.0875c0,-4.2 -0.04375,-8.35625 -0.21875,-12.55625c-0.13125,-2.40625 -0.39375,-4.68125 -0.83125,-7.04375c-0.4375,-2.1875 -0.91875,-4.4625 -0.7,-6.69375c0.13125,-1.35625 -0.525,-2.49375 -1.88125,-2.8c-1.00625,-0.21875 -2.0125,-0.39375 -2.93125,0.21875c-0.39375,0.2625 -0.65625,0.6125 -0.875,1.00625c-0.04375,0.175 -0.13125,0.39375 -0.175,0.56875c-0.35,0.6125 -0.39375,1.18125 -0.2625,1.6625c-0.30625,1.05 -0.35,2.1875 -0.39375,3.2375c-0.13125,2.49375 0.0875,4.9875 0.2625,7.48125c0.30625,4.375 -0.175,8.79375 0.35,13.16875c0.6125,5.03125 2.975,9.58125 8.53125,9.8c2.275,0.0875 5.46875,-0.48125 8.26875,-1.70625c0.74375,1.575 2.1875,2.49375 4.9,2.1c1.05,-0.175 2.0125,-0.83125 2.1875,-1.925c0.7875,-5.46875 0.525,-11.025 0.4375,-16.49375z"/></g></g><g fill="#ef4823"><g><path d="M136.89375,134.44375c-3.85,-2.93125 -9.275,-3.01875 -13.3875,-0.7875c0,-0.91875 0,-1.8375 0.04375,-2.75625c0.0875,-4.025 0.30625,-8.05 0.04375,-12.075c-0.04375,-1.00625 -0.91875,-2.0125 -1.925,-2.1875c-0.91875,-0.13125 -1.70625,-0.65625 -2.625,-0.875c-1.75,-0.39375 -2.8,1.00625 -2.75625,2.40625c-0.04375,0.175 -0.0875,0.39375 -0.0875,0.6125c-0.39375,16.8 1.26875,33.5125 1.3125,50.3125c0,2.1875 2.40625,2.625 3.80625,1.61875c0.875,0.2625 1.925,0.04375 2.58125,-0.65625c0.7,-0.74375 0.91875,-1.4 1.00625,-2.31875c0.6125,0.39375 1.26875,0.74375 1.925,1.09375c2.75625,1.4875 5.8625,2.49375 8.925,1.61875c6.25625,-1.75 5.425,-11.24375 5.38125,-16.14375c-0.13125,-6.7375 2.0125,-15.18125 -4.24375,-19.8625zM131.99375,161.21875c-0.48125,1.00625 -1.4875,0.83125 -2.8875,0.35c-1.6625,-0.56875 -4.1125,-1.79375 -4.725,-3.5875c0,0 0,-0.04375 -0.04375,-0.04375c-0.13125,-4.94375 -0.30625,-9.93125 -0.525,-14.875c0,-0.35 -0.04375,-0.74375 -0.04375,-1.09375c0.525,-0.30625 0.9625,-0.7875 1.1375,-1.53125c0.525,-2.05625 6.3875,-0.525 7.30625,0.6125c0.39375,0.48125 0.74375,2.275 0.91875,3.36875c0.30625,1.96875 0.39375,3.9375 0.4375,5.95c0,3.54375 -0.04375,7.65625 -1.575,10.85zM135.14375,165.1125c-0.21875,0.30625 -0.525,0.525 -0.83125,0.7c0.04375,-0.04375 0.13125,-0.0875 0.175,-0.13125c0.2625,-0.21875 0.525,-0.48125 0.74375,-0.74375c-0.04375,0.04375 -0.04375,0.0875 -0.0875,0.175z"/></g></g><g fill="#ef4823"><g><path d="M154.2625,154.65625c1.6625,-0.4375 4.06875,-0.21875 5.55625,-0.21875c2.66875,0 5.29375,0.21875 7.91875,0.21875c1.3125,0 2.31875,-1.35625 2.23125,-2.58125c-0.30625,-3.85 0.7,-7.65625 -0.0875,-11.4625c-0.74375,-3.54375 -3.0625,-5.95 -6.16875,-7.65625c-4.9,-2.7125 -12.90625,-2.5375 -16.1,2.58125c-1.35625,2.14375 -1.18125,5.11875 -1.225,7.56875c-0.04375,2.23125 -0.35,4.50625 -0.525,6.7375c-0.2625,3.15 -0.875,7.35 0,10.7625c-0.04375,1.4875 0.04375,2.975 0.525,4.4625c0.83125,2.49375 2.975,3.7625 5.3375,4.50625c0.2625,0.0875 0.525,0.175 0.83125,0.21875c3.85,1.75 9.05625,1.3125 12.1625,-1.4c2.7125,-1.1375 7.48125,-6.25625 3.89375,-9.0125c-1.70625,-1.3125 -3.325,-1.35625 -4.94375,0.0875c-1.18125,1.05 -1.35625,3.2375 -2.1,4.2c-0.39375,0.525 -0.91875,0.91875 -1.53125,1.26875c-0.65625,0.13125 -1.26875,0.21875 -1.925,0.2625c-1.09375,0.13125 -2.23125,0.13125 -3.325,0.04375c-1.225,-0.74375 -1.61875,-2.1875 -1.4875,-3.85c0.175,-2.23125 0.74375,-4.4625 0.9625,-6.7375zM154.525,143.89375c0.13125,-1.79375 0.48125,-4.4625 2.66875,-4.94375c2.1875,-0.4375 4.59375,1.225 5.425,3.19375c0.7875,1.925 0.6125,4.2 -0.175,6.08125c-0.13125,0.30625 -4.41875,-0.56875 -5.075,-0.56875c-0.9625,-0.04375 -1.925,-0.04375 -2.93125,-0.0875c0,-1.18125 0,-2.45 0.0875,-3.675z"/></g></g><g fill="#d6e5e5"><g><path d="M112,31.7625c-0.30625,-0.04375 -0.6125,-0.0875 -0.91875,-0.13125c-0.4375,-0.525 -1.1375,-0.83125 -1.925,-0.7875c-1.53125,0.13125 -3.01875,-0.175 -4.50625,-0.175c-1.09375,-1.05 -2.975,-1.18125 -3.5875,0.65625c-0.0875,0.21875 -0.13125,0.4375 -0.21875,0.6125c-2.275,1.70625 -3.71875,4.24375 -5.03125,6.7375c-1.44375,2.8 -3.19375,4.94375 -5.38125,7.175c-1.26875,1.3125 -2.58125,2.58125 -3.5875,4.06875c-2.23125,-4.68125 -4.8125,-9.1875 -7.7875,-13.3875c-2.75625,-3.85 -6.08125,-5.29375 -10.45625,-5.6c-0.175,-0.04375 -0.35,-0.04375 -0.56875,-0.04375h-0.875c-2.05625,0 -2.58125,2.1 -1.79375,3.5c-0.2625,4.725 3.63125,8.96875 6.43125,12.38125c1.575,1.925 2.975,3.9375 4.41875,5.95c1.8375,2.58125 3.85,5.11875 5.29375,7.91875c-0.0875,1.8375 0.04375,3.675 0.13125,5.29375c0.175,4.1125 0.4375,8.09375 0.2625,12.20625c-0.0875,2.8 -0.13125,5.6 0.175,8.35625c0.175,1.44375 0.2625,2.93125 1.4,3.9375c1.225,1.05 3.10625,0.7875 4.59375,0.74375c0.83125,0 1.61875,0 2.3625,-0.0875c0.21875,0.04375 0.48125,0.0875 0.7,0.0875h0.4375c1.4,0 2.23125,-1.35625 2.23125,-2.58125v-0.21875c0.0875,-0.30625 0.0875,-0.65625 0,-0.91875v-0.13125c0,-0.6125 -0.21875,-1.1375 -0.525,-1.4875c-0.21875,-8.8375 0,-17.675 0.0875,-26.5125c7.56875,-7 13.9125,-15.35625 19.99375,-23.625c1.05,-1.35625 0.6125,-3.63125 -1.35625,-3.9375z"/></g></g><g fill="#d6e5e5"><g><path d="M127.35625,74.76875c-0.0875,-3.98125 -0.30625,-8.00625 -1.44375,-11.85625c-1.225,-4.1125 -3.54375,-7.7875 -7.13125,-10.15c-3.80625,-2.49375 -9.23125,-1.88125 -12.8625,0.6125c-1.8375,1.26875 -3.01875,3.19375 -3.675,5.29375c-1.6625,3.0625 -1.18125,7.2625 -0.83125,10.80625c0,1.88125 0,3.7625 0.13125,5.6c-0.21875,3.19375 -0.6125,6.3 0.56875,9.31875v1.96875c0,1.3125 1.35625,2.31875 2.58125,2.23125c0.04375,0 0.04375,0 0.0875,0c2.0125,1.79375 4.85625,2.7125 7.48125,2.975c4.06875,0.4375 9.1,-0.65625 11.375,-3.9375c0.6125,-0.56875 1.18125,-1.225 1.6625,-1.96875c2.1,-3.10625 2.1,-7.35 2.05625,-10.89375zM119.74375,74.76875c-0.0875,2.75625 -0.39375,6.125 -2.8,7.83125c-1.53125,1.09375 -3.675,1.4875 -5.46875,0.74375c-2.14375,-0.91875 -2.14375,-3.36875 -2.14375,-5.3375c0.04375,-1.925 0.35,-3.80625 0.175,-5.73125c-0.175,-2.1 -0.83125,-4.15625 -1.05,-6.3c-0.175,-1.88125 0.35,-3.54375 2.14375,-4.375c1.75,-0.7875 4.15625,-1.18125 5.95,-0.39375c0.4375,0.175 0.83125,0.2625 1.225,0.21875c2.14375,3.80625 2.1,10.28125 1.96875,13.34375z"/></g></g></g></g></g></svg>
