<?xml version="1.0"?>
<svg xmlns="http://www.w3.org/2000/svg" xmlns:xlink="http://www.w3.org/1999/xlink" version="1.1" viewBox="0 0 224 224" width="48px" height="48px"><g fill="none" fill-rule="nonzero" stroke="none" stroke-width="1" stroke-linecap="butt" stroke-linejoin="miter" stroke-miterlimit="10" stroke-dasharray="" stroke-dashoffset="0" font-family="none" font-weight="none" font-size="none" text-anchor="none" style="mix-blend-mode: normal"><path d="M0,224v-224h224v224z" fill="#f1c40f"/><g fill="#03a9f4"><g id="surface1"><path d="M196,58.00521c-6.17969,2.73437 -12.81511,4.55729 -19.81511,5.41406c7.10938,-4.22917 12.59636,-10.97396 15.16667,-18.94011c-6.67187,3.91927 -14.05468,6.78125 -21.89323,8.29427c-6.27083,-6.65364 -15.22136,-10.77344 -25.13802,-10.77344c-19.03125,0 -34.47135,15.29427 -34.47135,34.16146c0,2.66146 0.30989,5.26823 0.89323,7.78385c-28.63802,-1.42187 -54.04948,-15.03906 -71.03906,-35.71093c-2.98958,5.04948 -4.66667,10.95573 -4.66667,17.20833c0,11.84896 6.07031,22.29427 15.33073,28.4375c-5.65104,-0.16407 -10.97396,-1.75 -15.62239,-4.26563c0,0.10938 0,0.25521 0,0.40104c0,16.57031 11.88542,30.36979 27.63542,33.52343c-2.88021,0.78386 -5.92448,1.22136 -9.0599,1.22136c-2.22396,0 -4.39323,-0.25521 -6.48958,-0.63802c4.375,13.54427 17.09896,23.44271 32.19271,23.73438c-11.8125,9.15104 -26.66927,14.63802 -42.82031,14.63802c-2.78907,0 -5.52344,-0.16407 -8.22136,-0.49219c15.27604,9.66146 33.39583,15.33073 52.84636,15.33073c63.40104,0 98.09114,-52.0625 98.09114,-97.23437c0,-1.47657 -0.05469,-2.95313 -0.12761,-4.39323c6.76302,-4.79427 12.59636,-10.80989 17.20833,-17.70052"/></g></g></g></svg>
