<?xml version="1.0"?>
<svg xmlns="http://www.w3.org/2000/svg" xmlns:xlink="http://www.w3.org/1999/xlink" version="1.1" viewBox="0 0 224 224" width="48px" height="48px"><g fill="none" fill-rule="none" stroke="none" stroke-width="1" stroke-linecap="butt" stroke-linejoin="miter" stroke-miterlimit="10" stroke-dasharray="" stroke-dashoffset="0" font-family="none" font-weight="none" font-size="none" text-anchor="none" style="mix-blend-mode: normal"><path d="M0,224v-224h224v224z" fill="#f1c40f" fill-rule="nonzero"/><g><g id="surface1"><path d="M22.71354,202.08854l12.57812,-45.90104c-7.76562,-13.43489 -11.83073,-28.67448 -11.83073,-44.27864c0.01823,-48.83594 39.75781,-88.57552 88.61198,-88.57552c23.69792,0.01823 45.9375,9.24219 62.67188,25.97656c16.71614,16.73438 25.9401,38.99219 25.92187,62.65365c-0.01823,48.85417 -39.77604,88.57552 -88.59375,88.57552c-0.01823,0 0,0 0,0h-0.03646c-14.83854,0 -29.40365,-3.71875 -42.34636,-10.77343z" fill="#ffffff" fill-rule="nonzero"/><path d="M22.71354,204.42188c-0.61979,0 -1.20313,-0.25521 -1.65886,-0.69271c-0.58333,-0.60156 -0.80208,-1.45833 -0.58333,-2.26042l12.30469,-44.97136c-7.61979,-13.5625 -11.64844,-28.96614 -11.64844,-44.58854c0.01823,-50.13021 40.81511,-90.90886 90.94531,-90.90886c24.29948,0.01823 47.14063,9.47917 64.3125,26.66927c17.17188,17.17187 26.63281,40.01302 26.61458,64.29427c-0.01823,50.13021 -40.81511,90.90885 -90.92708,90.90885c-14.89323,0 -29.60417,-3.66406 -42.67448,-10.6276l-46.08333,12.08593c-0.20052,0.05469 -0.40104,0.09115 -0.60156,0.09115z" fill="#ffffff" fill-rule="nonzero"/><path d="M112.07292,23.33333c23.69792,0.01823 45.9375,9.24219 62.67188,25.97656c16.71614,16.73438 25.9401,38.99219 25.92187,62.65365c-0.01823,48.85417 -39.77604,88.57552 -88.59375,88.57552h-0.03646c-14.83854,0 -29.40365,-3.71875 -42.34636,-10.77343l-46.97656,12.32292l12.57812,-45.90104c-7.76562,-13.43489 -11.83073,-28.67448 -11.83073,-44.27864c0.01823,-48.83594 39.75781,-88.57552 88.61198,-88.57552M112.07292,200.53906v0M112.07292,200.53906v0M112.07292,18.66667c-51.42448,0 -93.26042,41.81771 -93.27864,93.24219c0,15.71354 3.95573,31.19011 11.48437,44.89844l-12.06771,44.04167c-0.4375,1.62239 0.01823,3.33593 1.18489,4.52083c0.89323,0.89323 2.09636,1.38542 3.31771,1.38542c0.40104,0 0.80208,-0.05469 1.18489,-0.16407l45.20833,-11.84896c13.19792,6.85417 28,10.46354 42.92969,10.48177c51.44271,0 93.27864,-41.83594 93.29687,-93.24219c0.01823,-24.91927 -9.67969,-48.34375 -27.28906,-65.97136c-17.60938,-17.62761 -41.05208,-27.32552 -65.97136,-27.34375z" fill="#cfd8dc" fill-rule="nonzero"/><path d="M164.15364,59.88281c-13.90885,-13.90885 -32.39323,-21.58333 -52.0625,-21.58333c-40.61458,0 -73.66406,33.01302 -73.68229,73.60938c0,13.90886 3.90104,27.45312 11.26562,39.17448l1.75,2.78906l-7.4375,27.16146l27.8724,-7.30989l2.69792,1.60417c11.30208,6.70833 24.26302,10.26302 37.47917,10.26302h0.03646c40.57813,0 73.60938,-33.03125 73.62761,-73.6276c0.01823,-19.66927 -7.63802,-38.17188 -21.54688,-52.08073z" fill="#40c351" fill-rule="nonzero"/><path d="M89.92448,74.88542c-1.65885,-3.70052 -3.40885,-3.77344 -4.99479,-3.82812c-1.29427,-0.05469 -2.77083,-0.05469 -4.24739,-0.05469c-1.45833,0 -3.86458,0.54687 -5.88802,2.77083c-2.04167,2.20573 -7.76563,7.56511 -7.76563,18.46614c0,10.88281 7.94792,21.41927 9.04167,22.89583c1.11198,1.45833 15.33073,24.53646 37.82552,33.41406c18.70313,7.36458 22.51302,5.90625 26.55989,5.54167c4.06511,-0.38281 13.10677,-5.35937 14.94792,-10.53646c1.84115,-5.15886 1.84115,-9.58854 1.29427,-10.51823c-0.54687,-0.92969 -2.02344,-1.47657 -4.24739,-2.58854c-2.20573,-1.11198 -13.08854,-6.45312 -15.13021,-7.20052c-2.02343,-0.72917 -3.5,-1.09375 -4.97656,1.11198c-1.47656,2.20573 -5.72396,7.20052 -7.01823,8.67708c-1.29427,1.47656 -2.57031,1.65885 -4.79427,0.5651c-2.20573,-1.11198 -9.33333,-3.44531 -17.79167,-10.99218c-6.58073,-5.86979 -11.02864,-13.10677 -12.32292,-15.33073c-1.29427,-2.20573 -0.14583,-3.40885 0.96614,-4.52083c1.00261,-0.98437 2.22396,-2.58854 3.33594,-3.88281c1.09375,-1.29427 1.45833,-2.20573 2.20573,-3.68229c0.72917,-1.47657 0.36458,-2.77083 -0.18229,-3.88282c-0.54688,-1.11198 -4.84896,-12.04948 -6.81771,-16.42448z" fill="#ffffff" fill-rule="evenodd"/></g></g></g></svg>
