<?xml version="1.0"?>
<svg xmlns="http://www.w3.org/2000/svg" xmlns:xlink="http://www.w3.org/1999/xlink" version="1.1" viewBox="0 0 224 224" width="48px" height="48px"><g fill="none" fill-rule="nonzero" stroke="none" stroke-width="1" stroke-linecap="butt" stroke-linejoin="miter" stroke-miterlimit="10" stroke-dasharray="" stroke-dashoffset="0" font-family="none" font-weight="none" font-size="none" text-anchor="none" style="mix-blend-mode: normal"><path d="M0,224v-224h224v224z" fill="#f1c40f"/><g id="Layer_1"><circle cx="24" cy="24" transform="scale(4.66667,4.66667)" r="19.95" fill="#ffffff"/><path d="M37.338,112c0,29.568 17.17333,55.09467 42.084,67.2l-35.62533,-97.58933c-4.13933,9.29133 -6.45867,19.544 -6.45867,30.38933zM162.41867,108.23867c0,-9.226 -4.96067,-15.63333 -7.79333,-20.58933c-3.794,-6.202 -7.35467,-11.37267 -7.35467,-17.50933c0,-6.83667 6.86467,-13.25333 14.19133,-13.25333c0.33133,0 0.63,0.028 0.96133,0.03733c-13.272,-12.19867 -30.97267,-19.59067 -50.41867,-19.59067c-25.14867,0 -47.38067,12.44133 -60.90933,31.49533c1.064,0.34533 1.43267,0.182 2.85133,0.182c7.78867,0 19.89867,-0.93333 19.89867,-0.93333c4.01333,-0.266 4.50333,5.656 0.462,6.14133c0,0 -4.032,0.49 -8.53067,0.70933l27.678,82.964l16.33333,-49.00467l-12.14733,-33.824c-4.018,-0.21467 -7.83533,-0.70933 -7.83533,-0.70933c-4.02267,-0.26133 -3.556,-6.41667 0.45733,-6.14133c0,0 12.35733,0.93333 19.67933,0.93333c7.81667,0 19.89867,-0.93333 19.89867,-0.93333c4.018,-0.266 4.50333,5.656 0.48533,6.14133c0,0 -4.06,0.49 -8.54933,0.70933l27.49133,82.18l7.462,-24.85467c3.79867,-9.70667 5.68867,-17.73333 5.68867,-24.15zM113.31133,118.51467l-22.4,65.10933c6.70133,1.988 13.76667,3.04267 21.09333,3.04267c8.68467,0 17.02867,-1.512 24.808,-4.23267c-0.18667,-0.33133 -0.39667,-0.66733 -0.55067,-1.02667zM177.534,76.15067c0.33133,2.38 0.504,4.942 0.504,7.67667c0,7.59733 -1.428,16.10467 -5.68867,26.77267l-22.79667,65.96333c22.204,-12.936 37.114,-37.02067 37.114,-64.56333c0,-12.978 -3.318,-25.18133 -9.13267,-35.84933z" fill="#01579b"/><path d="M18.66667,112c0,51.44533 41.86,93.33333 93.32867,93.33333c51.478,0 93.338,-41.888 93.338,-93.33333c0,-51.44533 -41.86,-93.33333 -93.33333,-93.33333c-51.47333,0 -93.33333,41.888 -93.33333,93.33333zM27.97667,112c0,-46.312 37.67867,-83.99533 84.01867,-83.99533c46.34,0 84.028,37.68333 84.028,83.99533c0,46.312 -37.688,84.00467 -84.02333,84.00467c-46.33067,0 -84.02333,-37.69267 -84.02333,-84.00467z" fill="#01579b"/></g></g></svg>
